PathFileType	4	(x/y/z)	S09_P20_T14
DataRate	CameraRate	NumFrames	NumMarkers	Units	OrigDataRate	OrigDataStartFrame	OrigNumFrames
240	240	5	51	mm	240	100	398
Frame#	Time	Sternum			R.Acromium			L.Acromium			Top.Head			R.ASIS			L.ASIS			R.PSIS			L.PSIS			R.Great.Tro			L.Great.Tro			R.Iliac.Crest			L.Iliac.Crest			V.Sacral			R.Thigh.Upper.Post			R.Thigh.Lower.Ant			R.Thigh.Lower.Post			R.Thigh.Upper.Ant			R.Knee.Lat			R.Knee.Med			R.Shank.Upper.Post			R.Shank.Lower.Ant			R.Shank.Lower.Post			R.Shank.Upper.Ant			R.Ankle.Lat			R.Ankle.Med			R.Heel.Upper			R.Heel.Med			R.Heel.Lat			R.Toe.Lat			R.Toe.Med			R.Toe.Tip			L.Thigh.Upper.Post			L.Thigh.Lower.Ant			L.Thigh.Lower.Post			L.Thigh.Upper.Ant			L.Knee.Lat			L.Knee.Med			L.Shank.Upper.Post			L.Shank.Lower.Ant			L.Shank.Lower.Post			L.Shank.Upper.Ant			L.Ankle.Lat			L.Ankle.Med			L.Heel.Upper			L.Heel.Med			L.Heel.Lat			L.Toe.Lat			L.Toe.Med			L.Toe.Tip			Cervical.Spine			Back			
		X1	Y1	Z1	X2	Y2	Z2	X3	Y3	Z3	X4	Y4	Z4	X5	Y5	Z5	X6	Y6	Z6	X7	Y7	Z7	X8	Y8	Z8	X9	Y9	Z9	X10	Y10	Z10	X11	Y11	Z11	X12	Y12	Z12	X13	Y13	Z13	X14	Y14	Z14	X15	Y15	Z15	X16	Y16	Z16	X17	Y17	Z17	X18	Y18	Z18	X19	Y19	Z19	X20	Y20	Z20	X21	Y21	Z21	X22	Y22	Z22	X23	Y23	Z23	X24	Y24	Z24	X25	Y25	Z25	X26	Y26	Z26	X27	Y27	Z27	X28	Y28	Z28	X29	Y29	Z29	X30	Y30	Z30	X31	Y31	Z31	X32	Y32	Z32	X33	Y33	Z33	X34	Y34	Z34	X35	Y35	Z35	X36	Y36	Z36	X37	Y37	Z37	X38	Y38	Z38	X39	Y39	Z39	X40	Y40	Z40	X41	Y41	Z41	X42	Y42	Z42	X43	Y43	Z43	X44	Y44	Z44	X45	Y45	Z45	X46	Y46	Z46	X47	Y47	Z47	X48	Y48	Z48	X49	Y49	Z49	X50	Y50	Z50	X51	Y51	Z51	

100	0.4125	-830.02	1194	338.43	-974.54	1445.4	480.34	-951.55	1441.9	167.76	-937.43	1747.7	332.72	-890.72	1026.1	439.8	-903.54	1020	195.61	-1115.3	1051	376.5	-1112.1	1056.6	287.73	-964.66	943.16	519.17	-989.19	935.3	133.13	-975.07	1105.6	485.17	-999.88	1120.2	166.72	-1132.8	1018.5	329.51	-899.75	702.9	504.4	-799.89	624.82	464.09	-876.75	611.96	481.28	-826.29	708.98	488.47	-800.98	545.17	460.66	-804.02	531.26	336.44	-839.35	362.75	470.26	-759.62	318.51	468.2	-823.82	288.11	463.52	-780.05	389.47	476.01	-750.59	108.9	456.4	-717.88	128.5	374.85	-802.06	74.603	397.15	-778.81	47.831	370.63	-795.11	45.62	433.53	-645.21	70.462	503.65	-589.08	91.131	406.95	-554.64	116.95	456.19	-1092.2	696.73	197.07	-1026.8	586.98	198.26	-1089	607.18	215.71	-1025.8	674.18	173.28	-1058.8	509.73	213.6	-1030.4	522.74	343.25	-1134.4	388.44	209.13	-1091.3	287.85	225.1	-1148.1	314.36	218.99	-1075.8	363.59	214.24	-1176	113.96	255.68	-1155.8	110.3	345.98	-1252	82.057	312.45	-1240	56.945	343.42	-1255.3	54.508	283.77	-1084.4	42.337	220.91	-1042.5	39.399	326.89	-991.95	49.767	265.59	-1045.9	1486.3	328.46	-1091.5	1225.4	315.13
101	0.41667	-824.41	1192.4	338.33	-968.79	1444.3	480.46	-945.88	1440.9	167.88	-932.02	1746.7	332.67	-885.04	1025	439.75	-898.52	1019.4	195.49	-1109.9	1050	377.06	-1106.8	1055.8	288.31	-959.16	941.84	519.06	-984.7	934.79	133.13	-969.33	1104.4	485.36	-994.97	1119.5	167.06	-1127.3	1017.7	330.07	-895.43	701.31	504.23	-796.04	622.87	463.99	-873.02	610.4	480.93	-822.04	707.09	488.51	-797.04	543.89	460.29	-800.33	529.92	335.61	-831.42	361.09	469.58	-750.7	318.61	467.46	-814.24	286.77	462.81	-772.71	389.12	475.33	-736.6	108.87	455.45	-704.44	129.29	373.93	-787.45	73.325	396.33	-763.55	47.11	369.74	-779.7	44.443	432.64	-630.18	72.888	502.5	-574.67	95.066	405.67	-540.84	121.7	454.91	-1088.4	696.75	197.64	-1023.6	586.71	198.35	-1085.3	606.96	215.98	-1022.3	673.9	173.47	-1055.8	509.55	213.73	-1026.8	522.38	343.28	-1132	388.72	209.27	-1089.7	287.79	225.17	-1146.3	314.74	219.16	-1073.7	363.45	214.29	-1175.5	114.46	255.85	-1155.3	110.57	346.16	-1251.7	82.737	312.58	-1239.7	57.526	343.54	-1255.1	55.173	283.88	-1084.2	42.371	220.97	-1042.3	39.236	326.9	-991.75	49.41	265.59	-1040	1485.5	328.6	-1086	1224.5	315.45
102	0.42083	-818.77	1190.8	338.25	-963.04	1443.3	480.59	-940.24	1439.8	168.02	-926.61	1745.8	332.64	-879.36	1023.9	439.72	-893.45	1018.7	195.38	-1104.4	1049.1	377.62	-1101.4	1054.9	288.88	-953.65	940.51	518.96	-980.17	934.26	133.13	-963.57	1103.2	485.57	-990.04	1118.8	167.4	-1121.9	1016.8	330.63	-891.06	699.72	504.06	-792.15	620.93	463.94	-869.24	608.85	480.58	-817.76	705.21	488.61	-793.04	542.63	459.95	-796.6	528.61	334.8	-823.59	359.52	468.92	-741.94	318.74	466.69	-804.84	285.55	462.1	-765.45	388.79	474.64	-723.03	108.95	454.45	-691.46	130.15	372.94	-773.3	72.223	395.48	-748.79	46.555	368.82	-764.75	43.456	431.72	-615.63	75.368	501.26	-560.81	98.965	404.27	-527.55	126.4	453.5	-1084.6	696.75	198.24	-1020.4	586.41	198.42	-1081.6	606.73	216.27	-1018.7	673.6	173.66	-1052.9	509.34	213.85	-1023.2	521.97	343.31	-1129.6	388.99	209.4	-1088	287.72	225.23	-1144.4	315.1	219.33	-1071.5	363.28	214.35	-1175	114.99	256.01	-1154.8	110.85	346.32	-1251.4	83.455	312.68	-1239.5	58.14	343.65	-1254.9	55.867	283.98	-1084.1	42.403	221.03	-1042.1	39.082	326.9	-991.54	49.056	265.58	-1034.3	1484.6	328.77	-1080.6	1223.6	315.79
103	0.425	-813.1	1189.2	338.17	-957.28	1442.2	480.75	-934.61	1438.7	168.18	-921.19	1744.8	332.62	-873.66	1022.8	439.7	-888.34	1017.9	195.28	-1098.9	1048.1	378.17	-1096	1054.1	289.45	-948.13	939.18	518.88	-975.6	933.7	133.14	-957.8	1102	485.79	-985.07	1118	167.74	-1116.4	1016	331.18	-886.62	698.14	503.89	-788.18	619.02	463.92	-865.4	607.32	480.22	-813.42	703.35	488.75	-788.94	541.4	459.62	-792.81	527.34	334.01	-815.85	358.04	468.28	-733.37	318.87	465.89	-795.64	284.42	461.39	-758.28	388.47	473.95	-709.91	109.13	453.39	-678.97	131.07	371.89	-759.65	71.279	394.59	-734.58	46.14	367.85	-750.31	42.634	430.75	-601.61	77.854	499.93	-547.53	102.78	402.77	-514.78	130.98	451.95	-1080.7	696.72	198.85	-1017.2	586.09	198.47	-1077.9	606.47	216.56	-1015.1	673.27	173.84	-1049.8	509.1	213.97	-1019.4	521.51	343.32	-1127.1	389.25	209.52	-1086.2	287.63	225.3	-1142.5	315.45	219.48	-1069.2	363.09	214.41	-1174.5	115.54	256.15	-1154.3	111.16	346.46	-1251.1	84.216	312.77	-1239.2	58.79	343.74	-1254.7	56.594	284.06	-1084	42.434	221.08	-1042	38.938	326.9	-991.33	48.706	265.57	-1028.5	1483.8	328.97	-1075.2	1222.7	316.15
104	0.42917	-807.42	1187.5	338.1	-951.53	1441.2	480.93	-929	1437.6	168.37	-915.76	1743.8	332.6	-867.95	1021.7	439.7	-883.18	1017.2	195.19	-1093.4	1047.2	378.72	-1090.6	1053.3	290.01	-942.6	937.85	518.83	-970.98	933.12	133.16	-952.01	1100.8	486.03	-980.08	1117.3	168.08	-1110.9	1015.1	331.72	-882.09	696.57	503.73	-784.11	617.16	463.92	-861.47	605.84	479.84	-809.02	701.53	488.94	-784.74	540.21	459.31	-788.92	526.14	333.25	-808.22	356.65	467.66	-724.98	319	465.06	-786.65	283.38	460.7	-751.19	388.15	473.24	-697.28	109.37	452.29	-667	132.01	370.78	-746.52	70.469	393.66	-720.94	45.84	366.82	-736.43	41.953	429.75	-588.13	80.301	498.5	-534.85	106.46	401.19	-502.56	135.41	450.29	-1076.7	696.66	199.48	-1013.8	585.74	198.51	-1074.3	606.2	216.88	-1011.4	672.91	174.02	-1046.6	508.82	214.09	-1015.6	521	343.32	-1124.6	389.48	209.62	-1084.4	287.52	225.37	-1140.5	315.79	219.63	-1066.9	362.88	214.47	-1173.9	116.11	256.27	-1153.8	111.5	346.6	-1250.8	85.023	312.83	-1239	59.479	343.82	-1254.5	57.359	284.13	-1083.9	42.464	221.12	-1041.8	38.805	326.89	-991.12	48.361	265.56	-1022.8	1482.9	329.19	-1069.7	1221.7	316.54
